<mxfile host="app.diagrams.net" modified="2023-01-10T00:43:16.911Z" agent="5.0 (Windows NT 10.0; Win64; x64) AppleWebKit/537.36 (KHTML, like Gecko) Chrome/108.0.0.0 Safari/537.36" etag="YnxywkXQKobx6x26-om1" version="20.2.5" type="github">
  <diagram id="bmjHXtDE9AHRfwIUwjw0" name="Trang-1">
    <mxGraphModel dx="1385" dy="635" grid="1" gridSize="10" guides="1" tooltips="1" connect="1" arrows="1" fold="1" page="1" pageScale="1" pageWidth="827" pageHeight="1169" math="0" shadow="0">
      <root>
        <mxCell id="0" />
        <mxCell id="1" parent="0" />
        <mxCell id="4PgSZyD0OaH6xsT9j_vU-5" style="rounded=0;orthogonalLoop=1;jettySize=auto;html=1;exitX=0.5;exitY=0.5;exitDx=0;exitDy=0;exitPerimeter=0;" edge="1" parent="1" source="4PgSZyD0OaH6xsT9j_vU-1" target="4PgSZyD0OaH6xsT9j_vU-6">
          <mxGeometry relative="1" as="geometry">
            <mxPoint x="250" y="270" as="targetPoint" />
          </mxGeometry>
        </mxCell>
        <mxCell id="4PgSZyD0OaH6xsT9j_vU-7" style="rounded=0;orthogonalLoop=1;jettySize=auto;html=1;exitX=0.5;exitY=0.5;exitDx=0;exitDy=0;exitPerimeter=0;" edge="1" parent="1" source="4PgSZyD0OaH6xsT9j_vU-1" target="4PgSZyD0OaH6xsT9j_vU-8">
          <mxGeometry relative="1" as="geometry">
            <mxPoint x="240" y="410" as="targetPoint" />
          </mxGeometry>
        </mxCell>
        <mxCell id="4PgSZyD0OaH6xsT9j_vU-1" value="Quản lý siêu thị" style="shape=umlActor;verticalLabelPosition=bottom;verticalAlign=top;html=1;outlineConnect=0;" vertex="1" parent="1">
          <mxGeometry x="70" y="310" width="30" height="60" as="geometry" />
        </mxCell>
        <mxCell id="4PgSZyD0OaH6xsT9j_vU-2" value="Quản lý nhà cung cấp" style="shape=umlActor;verticalLabelPosition=bottom;verticalAlign=top;html=1;outlineConnect=0;" vertex="1" parent="1">
          <mxGeometry x="850" y="130" width="30" height="60" as="geometry" />
        </mxCell>
        <mxCell id="4PgSZyD0OaH6xsT9j_vU-3" value="Quản lý kho" style="shape=umlActor;verticalLabelPosition=bottom;verticalAlign=top;html=1;outlineConnect=0;" vertex="1" parent="1">
          <mxGeometry x="850" y="530" width="30" height="60" as="geometry" />
        </mxCell>
        <mxCell id="4PgSZyD0OaH6xsT9j_vU-6" value="Tìm kiếm" style="ellipse;whiteSpace=wrap;html=1;" vertex="1" parent="1">
          <mxGeometry x="280" y="170" width="120" height="80" as="geometry" />
        </mxCell>
        <mxCell id="4PgSZyD0OaH6xsT9j_vU-8" value="Cập nhật" style="ellipse;whiteSpace=wrap;html=1;" vertex="1" parent="1">
          <mxGeometry x="280" y="310" width="120" height="80" as="geometry" />
        </mxCell>
        <mxCell id="4PgSZyD0OaH6xsT9j_vU-10" style="rounded=0;orthogonalLoop=1;jettySize=auto;html=1;exitX=0.5;exitY=0.5;exitDx=0;exitDy=0;exitPerimeter=0;" edge="1" parent="1" source="4PgSZyD0OaH6xsT9j_vU-1" target="4PgSZyD0OaH6xsT9j_vU-11">
          <mxGeometry relative="1" as="geometry">
            <mxPoint x="211.59739810848055" y="511.7649652077739" as="targetPoint" />
            <mxPoint x="60" y="460" as="sourcePoint" />
          </mxGeometry>
        </mxCell>
        <mxCell id="4PgSZyD0OaH6xsT9j_vU-11" value="Phân quyền" style="ellipse;whiteSpace=wrap;html=1;" vertex="1" parent="1">
          <mxGeometry x="279.9973981084805" y="440.0049652077739" width="120" height="80" as="geometry" />
        </mxCell>
        <mxCell id="4PgSZyD0OaH6xsT9j_vU-12" style="rounded=0;orthogonalLoop=1;jettySize=auto;html=1;exitX=0.5;exitY=0.5;exitDx=0;exitDy=0;exitPerimeter=0;" edge="1" parent="1" target="4PgSZyD0OaH6xsT9j_vU-13" source="4PgSZyD0OaH6xsT9j_vU-1">
          <mxGeometry relative="1" as="geometry">
            <mxPoint x="179.99739810848055" y="640.4149652077739" as="targetPoint" />
            <mxPoint x="68.4" y="489.000284271057" as="sourcePoint" />
          </mxGeometry>
        </mxCell>
        <mxCell id="4PgSZyD0OaH6xsT9j_vU-13" value="In báo cáo" style="ellipse;whiteSpace=wrap;html=1;" vertex="1" parent="1">
          <mxGeometry x="279.9973981084805" y="585.0049652077739" width="120" height="80" as="geometry" />
        </mxCell>
        <mxCell id="4PgSZyD0OaH6xsT9j_vU-15" value="Đăng nhập" style="ellipse;whiteSpace=wrap;html=1;" vertex="1" parent="1">
          <mxGeometry x="590" y="320" width="120" height="80" as="geometry" />
        </mxCell>
        <mxCell id="4PgSZyD0OaH6xsT9j_vU-16" value="Đăng xuất" style="ellipse;whiteSpace=wrap;html=1;" vertex="1" parent="1">
          <mxGeometry x="480" y="505" width="120" height="80" as="geometry" />
        </mxCell>
        <mxCell id="4PgSZyD0OaH6xsT9j_vU-18" value="" style="endArrow=classic;html=1;rounded=0;entryX=0.5;entryY=0;entryDx=0;entryDy=0;exitX=0.25;exitY=0.938;exitDx=0;exitDy=0;exitPerimeter=0;shadow=0;" edge="1" parent="1" source="4PgSZyD0OaH6xsT9j_vU-15" target="4PgSZyD0OaH6xsT9j_vU-16">
          <mxGeometry relative="1" as="geometry">
            <mxPoint x="400" y="440" as="sourcePoint" />
            <mxPoint x="500" y="440" as="targetPoint" />
          </mxGeometry>
        </mxCell>
        <mxCell id="4PgSZyD0OaH6xsT9j_vU-19" value="&amp;lt;&amp;lt;extend&amp;gt;&amp;gt;" style="edgeLabel;resizable=0;html=1;align=center;verticalAlign=middle;shadow=1;" connectable="0" vertex="1" parent="4PgSZyD0OaH6xsT9j_vU-18">
          <mxGeometry relative="1" as="geometry" />
        </mxCell>
      </root>
    </mxGraphModel>
  </diagram>
</mxfile>
